HIERARCHY
ROOT Hips
{
	OFFSET -13.091600 -28.302996 44.698402
	CHANNELS 6 Xposition Yposition Zposition Zrotation Xrotation Yrotation
	JOINT Chest
	{
		OFFSET -0.673000 0.623899 5.369202
		CHANNELS 6 Xposition Yposition Zposition Zrotation Xrotation Yrotation
		JOINT Chest2
		{
			OFFSET 0.000000 0.000000 4.415001
			CHANNELS 6 Xposition Yposition Zposition Zrotation Xrotation Yrotation
			JOINT Neck
			{
				OFFSET 0.000000 0.000002 10.273300
				CHANNELS 6 Xposition Yposition Zposition Zrotation Xrotation Yrotation
				JOINT Head
				{
					OFFSET 0.000000 0.000000 2.173897
					CHANNELS 6 Xposition Yposition Zposition Zrotation Xrotation Yrotation
					End Site
					{
						OFFSET 0.000000 0.000000 9.961800
					}
				}
			}
			JOINT LeftCollar
			{
				OFFSET 2.359900 -0.565201 5.928101
				CHANNELS 6 Xposition Yposition Zposition Zrotation Xrotation Yrotation
				JOINT LeftShoulder
				{
					OFFSET 5.443700 0.000000 0.000000
					CHANNELS 6 Xposition Yposition Zposition Zrotation Xrotation Yrotation
					JOINT LeftElbow
					{
						OFFSET 0.000000 0.000000 -10.615799
						CHANNELS 6 Xposition Yposition Zposition Zrotation Xrotation Yrotation
						JOINT LeftWrist
						{
							OFFSET 0.000000 -0.000002 -13.110302
							CHANNELS 6 Xposition Yposition Zposition Zrotation Xrotation Yrotation
							End Site
							{
								OFFSET 0.000000 0.000000 -2.173901
							}
						}
					}
				}
			}
			JOINT RightCollar
			{
				OFFSET -2.636600 -1.718800 6.889698
				CHANNELS 6 Xposition Yposition Zposition Zrotation Xrotation Yrotation
				JOINT RightShoulder
				{
					OFFSET -4.139101 0.000000 0.000000
					CHANNELS 6 Xposition Yposition Zposition Zrotation Xrotation Yrotation
					JOINT RightElbow
					{
						OFFSET 0.000000 0.000000 -10.471802
						CHANNELS 6 Xposition Yposition Zposition Zrotation Xrotation Yrotation
						JOINT RightWrist
						{
							OFFSET 0.000000 0.000000 -12.281898
							CHANNELS 6 Xposition Yposition Zposition Zrotation Xrotation Yrotation
							End Site
							{
								OFFSET 0.000000 -0.000002 -2.173901
							}
						}
					}
				}
			}
		}
	}
	JOINT LeftHip
	{
		OFFSET 2.273400 0.176701 -2.518002
		CHANNELS 6 Xposition Yposition Zposition Zrotation Xrotation Yrotation
		JOINT LeftKnee
		{
			OFFSET 0.000000 -0.000002 -20.456402
			CHANNELS 6 Xposition Yposition Zposition Zrotation Xrotation Yrotation
			JOINT LeftAnkle
			{
				OFFSET 0.000000 -0.000002 -16.635300
				CHANNELS 6 Xposition Yposition Zposition Zrotation Xrotation Yrotation
				End Site
				{
					OFFSET 0.000000 -8.812399 0.000001
				}
			}
		}
	}
	JOINT RightHip
	{
		OFFSET -1.914800 0.018101 -2.699299
		CHANNELS 6 Xposition Yposition Zposition Zrotation Xrotation Yrotation
		JOINT RightKnee
		{
			OFFSET 0.000000 -0.000002 -20.148901
			CHANNELS 6 Xposition Yposition Zposition Zrotation Xrotation Yrotation
			JOINT RightAnkle
			{
				OFFSET 0.000000 -0.000002 -16.838301
				CHANNELS 6 Xposition Yposition Zposition Zrotation Xrotation Yrotation
				End Site
				{
					OFFSET 0.000000 -8.328398 0.000001
				}
			}
		}
	}
}
MOTION
Frames: 4
Frame Time: 0.041667
-13.884998 -29.740597 35.446098 720.143673 26.439352 2.469762 -0.673002 0.623891 5.369201 2.813832 43.284278 -8.637204 0.000000 0.000003 4.415006 5.513257 -9.414502 -0.834570 -0.000002 0.000006 10.273310 -17.553672 10.634425 -15.043953 0.000002 -0.000005 2.173904 -3.948504 -4.633786 -3.671993 2.359899 -0.565199 5.928106 -1.040961 12.773377 -17.170040 5.443697 0.000004 -0.000005 -89.911647 -16.007236 -108.502835 -0.000001 -0.000006 -10.615789 550.570074 -156.599750 182.577008 -0.000009 -0.000005 -13.110300 -204.455907 -176.740748 182.517121 -2.636599 -1.718798 6.889705 198.653716 -194.499540 149.156701 -4.139101 -0.000004 -0.000003 0.624353 -352.997400 119.414233 0.000001 0.000003 -10.471806 -26.951884 -0.797962 0.295833 -0.000001 -0.000003 -12.281904 -24.882412 27.207813 46.571747 2.273400 0.176706 -2.518002 -73.075354 -139.179256 -85.475508 0.000002 -0.000008 -20.456400 30.012548 158.592812 -90.792147 -0.000012 -0.000004 -16.635300 64.662596 10.035886 36.816615 -1.914797 0.018105 -2.699302 69.816274 215.733041 102.698806 0.000005 -0.000001 -20.148901 173.290560 39.666901 -103.394605 -0.000001 -0.000002 -16.838299 -38.151313 19.105443 -3.262356
-13.405798 -30.173996 35.077202 721.306171 26.336716 2.449531 -0.673000 0.623891 5.369207 2.081452 42.852426 -8.250296 0.000002 0.000003 4.415013 6.335968 -9.434229 -0.756117 -0.000003 0.000002 10.273302 -18.155244 10.658304 -15.783269 0.000000 -0.000001 2.173898 -4.654421 -4.622878 -3.675814 2.359899 -0.565202 5.928098 -2.593291 10.835201 -16.512703 5.443695 -0.000004 -0.000007 -89.146919 -16.364148 -105.020511 -0.000003 0.000001 -10.615797 553.875012 -156.043417 183.650550 -0.000003 -0.000006 -13.110297 -204.999918 -176.514245 181.975227 -2.636602 -1.718803 6.889700 199.661647 -193.719109 148.163250 -4.139101 0.000003 -0.000004 -1.295147 -352.053385 119.392048 -0.000002 -0.000003 -10.471801 -27.850824 -0.789238 0.302053 -0.000005 0.000005 -12.281898 -26.486022 27.454075 47.335960 2.273398 0.176707 -2.518001 -74.350338 -138.501388 -84.477433 -0.000004 -0.000008 -20.456400 29.107100 160.014311 -88.606132 -0.000004 -0.000010 -16.635303 66.254140 9.077152 37.560125 -1.914796 0.018096 -2.699302 67.577031 214.981734 101.474058 0.000007 -0.000006 -20.148903 175.464049 37.449261 -103.695891 0.000002 -0.000005 -16.838303 -40.082549 20.946249 -4.090693
-12.945999 -30.597597 34.712204 722.140437 26.335625 2.541305 -0.673002 0.623892 5.369207 1.599740 42.394578 -7.832556 0.000003 0.000001 4.415005 7.156089 -9.474873 -0.699316 -0.000005 -0.000005 10.273302 -20.679651 11.020872 -15.067097 -0.000002 -0.000006 2.173903 -3.633798 -4.477559 -4.601949 2.359900 -0.565211 5.928102 -2.497479 10.909102 -16.119199 5.443695 0.000002 -0.000001 -89.814488 -16.713895 -103.858026 0.000001 -0.000001 -10.615793 557.216122 -155.513709 184.749637 -0.000005 -0.000005 -13.110294 -204.981627 -176.266077 181.428047 -2.636600 -1.718809 6.889701 199.180693 -193.598953 147.222405 -4.139102 -0.000011 -0.000003 -1.785038 -350.673195 119.781369 0.000004 0.000001 -10.471801 -28.797273 -0.789283 0.273948 0.000004 -0.000003 -12.281898 -28.167538 27.791073 48.164868 2.273396 0.176701 -2.517998 -75.274408 -137.899689 -83.470055 0.000000 -0.000002 -20.456394 28.439108 161.191208 -86.590372 -0.000005 -0.000005 -16.635300 67.597235 8.117022 38.127974 -1.914798 0.018097 -2.699294 65.732306 214.298374 100.385715 0.000006 -0.000002 -20.148901 177.188030 36.743453 -103.334000 -0.000002 -0.000002 -16.838306 -41.791045 22.143347 -4.658854
-12.503000 -31.009291 34.353004 723.010986 25.817032 2.592676 -0.672998 0.623893 5.369210 1.104473 42.554838 -7.472944 0.000002 0.000001 4.415004 8.031245 -9.513790 -0.627489 -0.000004 -0.000001 10.273302 -22.091275 10.978447 -14.929409 -0.000001 -0.000012 2.173904 -3.774068 -4.430214 -4.990316 2.359900 -0.565201 5.928091 -2.371528 10.925554 -15.651192 5.443696 0.000004 -0.000003 -90.359981 -16.978602 -102.535121 -0.000001 -0.000001 -10.615788 560.151901 -154.977143 185.776446 -0.000004 -0.000001 -13.110297 -204.711356 -176.346277 180.380638 -2.636603 -1.718807 6.889699 198.683141 -193.579664 146.409708 -4.139097 -0.000003 -0.000003 -2.375971 -349.076953 120.213638 -0.000002 0.000001 -10.471803 -29.763287 -0.797708 0.162518 0.000001 0.000003 -12.281897 -29.920484 28.211678 48.943387 2.273397 0.176701 -2.518001 -76.582943 -137.253990 -83.211921 -0.000000 -0.000002 -20.456402 27.977940 162.249655 -84.724965 -0.000006 -0.000005 -16.635300 68.714176 7.220298 38.551425 -1.914794 0.018106 -2.699292 64.356132 214.021560 100.208902 0.000000 0.000001 -20.148907 178.289698 38.095274 -102.146292 0.000003 -0.000005 -16.838305 -42.587852 22.785764 -4.589479
